<svg xmlns="http://www.w3.org/2000/svg" xmlns:xlink="http://www.w3.org/1999/xlink" width="91" height="24" viewBox="0 0 91 24">
    <defs>
        <path id="a" d="M0 19.51V.445h11.554V19.51z"/>
    </defs>
    <g fill="none" fill-rule="evenodd">
        <mask id="b" fill="#fff">
            <use xlink:href="#a"/>
        </mask>
        <path fill="#FFF" d="M4.517 19.51c-1.68 0-2.915-.21-4.517-.656l.394-2.915c1.287.42 2.652.683 4.096.683 2.259 0 3.336-.92 3.336-2.52 0-1.577-1.26-2.18-3.388-3.021C1.812 10.004.078 8.665.078 5.75.079 2.363 2.81.445 6.409.445c1.418 0 2.888.237 4.044.657l-.526 2.731c-1.024-.368-2.284-.578-3.492-.578-1.733 0-2.626.814-2.626 2.075 0 1.576 1.208 2.18 2.914 2.888 2.495 1.051 4.832 2.101 4.832 5.41 0 3.939-2.993 5.882-7.037 5.882" mask="url(#b)"/>
        <path fill="#FFF" d="M20.79 7.7c-1.241 0-2.219.623-3.408 1.972v6.1c.66.312 1.506.545 2.563.545 2.325 0 3.514-1.583 3.514-4.439 0-2.361-.66-4.179-2.669-4.179m-.792 11.24c-.899 0-1.797-.105-2.616-.26V24H14V5.363h2.589l.265 1.74C18.096 5.805 19.469 5 21.478 5 25.308 5 27 7.88 27 11.489c0 4.153-2.167 7.45-7.002 7.45M35.934 7.61c-2.32 0-3.4 1.807-3.4 4.287 0 2.712 1.053 4.469 3.532 4.469 2.32 0 3.4-1.73 3.4-4.211 0-2.764-1.027-4.546-3.532-4.546M35.882 19C31.373 19 29 16.39 29 12.233 29 7.867 31.531 5 36.145 5 40.628 5 43 7.66 43 11.871 43 16.133 40.495 19 35.882 19M53 19.68c-.584.213-1.6.32-2.54.32-2.133 0-3.58-.962-3.58-3.872V8.569H45V5.98h1.88L47.64 2h2.49v3.98H53v2.59h-2.87v6.517c0 1.815.508 2.19 1.829 2.19H53v2.403zM75.246.376h4.31l8.16 13.925V.376h3.28v19.258h-3.741l-8.729-14.76v14.76h-3.28zM64.5 12a1.5 1.5 0 0 1-1.5-1.5v-8a1.5 1.5 0 1 1 3 0v8a1.5 1.5 0 0 1-1.5 1.5"/>
        <path fill="#FFF" d="M64 19c-4.963 0-9-4.092-9-9.123a9.134 9.134 0 0 1 4.072-7.634 1.446 1.446 0 0 1 2.02.426 1.49 1.49 0 0 1-.42 2.048 6.174 6.174 0 0 0-2.753 5.16c0 3.4 2.728 6.164 6.081 6.164s6.081-2.765 6.081-6.164c0-1.962-.89-3.763-2.443-4.94a1.493 1.493 0 0 1-.295-2.07 1.447 1.447 0 0 1 2.043-.299C71.649 4.283 73 7.016 73 9.878 73 14.907 68.963 19 64 19"/>
    </g>
</svg>
