<svg xmlns="http://www.w3.org/2000/svg" width="102" height="100" viewBox="0 0 102 100">
    <g fill="none" fill-rule="evenodd">
        <path fill="#F2C3B1" d="M67.588 99.732H9.875C4.796 99.732.64 95.58.64 90.507V9.793C.64 4.72 4.796.57 9.875.57h57.713c5.079 0 9.234 4.15 9.234 9.224v80.714c0 5.074-4.155 9.225-9.234 9.225"/>
        <path fill="#E88787" d="M70.377 72.494c0 4.386-3.305 7.941-7.383 7.941H27.55c-4.077 0-7.383-3.555-7.383-7.941V15.315c0-4.386 3.306-7.941 7.383-7.941h35.444c4.078 0 7.383 3.555 7.383 7.941v57.179z"/>
        <path fill="#D71D24" d="M99.298 43.317h-15.75v3.933h10.998L52.514 89.24l2.783 2.78 42.032-41.987v10.986h3.938V45.284a1.968 1.968 0 0 0-1.969-1.967M10.894 26.563H39.47v-3.075H10.894zM10.894 18.876H39.47v-3.075H10.894zM10.894 34.25H39.47v-3.075H10.894zM10.895 41.937h14.287v-3.075H10.895z"/>
    </g>
</svg>
