<svg xmlns="http://www.w3.org/2000/svg" xmlns:xlink="http://www.w3.org/1999/xlink" width="102" height="95" viewBox="0 0 102 95">
    <defs>
        <path id="a" d="M0 95h102V0H0z"/>
    </defs>
    <g fill="none" fill-rule="evenodd">
        <path fill="#F2C3B1" d="M81.922 23.47c5.518 0 9.99 4.416 9.99 9.862v47.336c0 5.446-4.472 9.861-9.99 9.861H9.99C4.47 90.53 0 86.114 0 80.668V33.332c0-5.446 4.472-9.861 9.99-9.861h71.932z"/>
        <path fill="#E88787" d="M73.15 33.53H18.763c-4.173 0-7.554 3.09-7.554 6.903v33.135c0 3.812 3.381 6.903 7.554 6.903H73.15c4.172 0 7.553-3.091 7.553-6.903V40.433c0-3.813-3.381-6.904-7.553-6.904"/>
        <mask id="b" fill="#fff">
            <use xlink:href="#a"/>
        </mask>
        <path fill="#E89075" d="M13.45 95h63.89v-7.824H13.45z" mask="url(#b)"/>
        <path fill="#FFC612" d="M66.536.463a1.993 1.993 0 0 0-2.808.255l-18.313 22.01L34.972 8.78a1.988 1.988 0 0 0-2.79-.399 1.996 1.996 0 0 0-.398 2.795L43.74 27.143c.04.052.101.072.144.12.062.069.099.153.173.215.086.071.186.105.278.16.072.041.136.087.214.12.25.11.514.183.782.183h.005c.252 0 .5-.064.74-.162.07-.03.133-.069.2-.106.085-.046.175-.073.252-.132.072-.053.11-.131.172-.191.05-.05.119-.072.165-.128l19.926-23.95a1.998 1.998 0 0 0-.255-2.81" mask="url(#b)"/>
        <path fill="#D71D24" d="M100.144 14.53H85.297v3.7h10.367l-39.62 39.506 2.624 2.617 39.62-39.506v10.337H102V16.38c0-1.022-.831-1.85-1.856-1.85M20.176 50.294h26.9v-3.353h-26.9zM20.176 58.118h26.9v-3.353h-26.9zM20.176 64.824h13.45V61.47h-13.45z" mask="url(#b)"/>
    </g>
</svg>
