<svg xmlns="http://www.w3.org/2000/svg" xmlns:xlink="http://www.w3.org/1999/xlink" width="84" height="83" viewBox="0 0 84 83">
    <defs>
        <path id="a" d="M0 0h52v37H0z"/>
    </defs>
    <g fill="none" fill-rule="evenodd">
        <path fill="#F2C3B1" d="M56.772 83H16.691c-3.528 0-6.414-3.181-6.414-7.07V14.07c0-3.889 2.886-7.07 6.414-7.07h40.081c3.527 0 6.413 3.181 6.413 7.07v61.86c0 3.889-2.886 7.07-6.413 7.07"/>
        <path fill="#E88787" d="M52.553 72H20.91c-2.785 0-5.063-2.512-5.063-5.581V17.58c0-3.07 2.278-5.581 5.063-5.581h31.643c2.785 0 5.063 2.512 5.063 5.581V66.42c0 3.07-2.278 5.581-5.063 5.581"/>
        <path fill="#FFF" d="M82.144.53H67.297v3.7h10.367l-39.62 39.506 2.624 2.617 39.62-39.506v10.337H84V2.38c0-1.022-.831-1.85-1.856-1.85"/>
        <g transform="translate(.2 22.481)">
            <mask id="b" fill="#fff">
                <use xlink:href="#a"/>
            </mask>
            <path fill="#ED3124" d="M50.913 5.778c-.598-2.275-2.36-4.066-4.597-4.673C42.26 0 26 0 26 0S9.74 0 5.684 1.105c-2.237.607-4 2.398-4.598 4.673C0 9.9 0 18.5 0 18.5s0 8.6 1.086 12.722c.598 2.275 2.36 4.065 4.598 4.674C9.739 37 26 37 26 37s16.261 0 20.316-1.104c2.237-.609 4-2.4 4.597-4.674C52 27.1 52 18.5 52 18.5s0-8.6-1.087-12.722" mask="url(#b)"/>
        </g>
        <path fill="#FEFEFE" d="M20.685 49.247V33.503l13.394 7.872z"/>
    </g>
</svg>
